#!OML:ASF H:\charlestonDancing\Project 1\Capture day 1\Session 1\femaleDancer.ASF
:FULLY-SPECIFIED
:DEGREES
234
root -12.6876 17.5138 0.809299 14.838 -59.4104 -8.63789
lowerback 27.4531 1.28348 8.65699
upperback 13.5546 2.78072 2.91834
thorax 0.414299 1.32891 -2.43743
lowerneck 2.98665 3.0291 2.47969
upperneck 33.5527 -5.51926 25.6278
head 11.1997 -0.53849 9.01348
rclavicle -8.74653e-014 -1.11319e-014
rhumerus -201.759 190.465 -251.858
rradius 44.8789
rwrist 18.8547
rhand -27.7155 -49.1742
rfingers 7.12502
rthumb 178.889 100.849
lclavicle -8.74653e-014 -1.11319e-014
lhumerus -27.686 4.97745 83.5507
lradius 47.5993
lwrist -10.0363
lhand -17.1159 11.9312
lfingers 7.12502
lthumb 9.12346 41.7139
rfemur -23.4636 -12.4941 25.6604
rtibia 40.998
rfoot -20.6729 -17.1313
rtoes -16.401
lfemur -33.9167 -11.0997 -10.0576
ltibia 43.3824
lfoot -7.94185 -15.0659
ltoes -11.7994
235
root -12.6524 17.5093 0.872145 14.6367 -60.2995 -8.13787
lowerback 27.6593 1.15176 8.79063
upperback 13.2966 2.69867 3.26628
thorax 0.00710929 1.25659 -2.12497
lowerneck 2.56767 2.61207 2.1928
upperneck 32.252 -5.89262 26.0409
head 10.8211 -0.754939 9.08169
rclavicle -2.62396e-014 -2.46493e-014
rhumerus -201.79 190.01 -251.391
rradius 44.8265
rwrist 18.6059
rhand -27.8066 -49.2529
rfingers 7.12502
rthumb 178.801 100.771
lclavicle -2.62396e-014 -2.46493e-014
lhumerus -28.5772 4.78292 84.1175
lradius 48.3344
lwrist -9.8055
lhand -17.1885 11.7486
lfingers 7.12502
lthumb 9.05341 41.5343
rfemur -23.9885 -12.0673 24.9899
rtibia 41.4189
rfoot -20.5555 -16.8844
rtoes -17.025
lfemur -34.0161 -10.8101 -10.6874
ltibia 43.4861
lfoot -8.05863 -14.8017
ltoes -11.1374
236
root -12.6198 17.5044 0.933975 14.0843 -61.2362 -7.2393
lowerback 27.8776 0.998048 8.69292
upperback 13.0103 2.54263 3.50124
thorax -0.456148 1.14223 -1.78709
lowerneck 2.58483 2.36857 1.62035
upperneck 30.4475 -5.91447 26.9164
head 10.1148 -0.881876 9.36272
rclavicle 1.59028e-014 1.00983e-013
rhumerus -201.823 189.454 -251.109
rradius 44.8048
rwrist 18.3553
rhand -28.005 -49.2712
rfingers 7.12502
rthumb 178.609 100.754
lclavicle 1.59028e-014 1.00983e-013
lhumerus -29.5217 4.75678 84.4885
lradius 49.1067
lwrist -9.59846
lhand -17.1672 11.5631
lfingers 7.12502
lthumb 9.07402 41.3479
rfemur -24.5218 -11.6186 24.1223
rtibia 41.825
rfoot -20.3949 -16.6985
rtoes -18.0596
lfemur -34.105 -10.5092 -11.5241
ltibia 43.5844
lfoot -8.12193 -14.5157
ltoes -10.2452
237
root -12.5928 17.4987 0.996135 13.7934 -62.2061 -6.72051
lowerback 28.1746 0.857646 8.79551
upperback 12.6793 2.46536 3.75441
thorax -0.982325 1.07192 -1.5616
lowerneck 2.33262 1.93653 1.5426
upperneck 29.0009 -6.11382 26.9192
head 9.63578 -1.04866 9.21052
rclavicle -4.45278e-014 -1.59028e-015
rhumerus -202.078 188.956 -250.863
rradius 44.9343
rwrist 18.2406
rhand -28.0392 -49.3296
rfingers 7.12502
rthumb 178.576 100.695
lclavicle -4.45278e-014 -1.59028e-015
lhumerus -30.4593 4.52126 84.8493
lradius 49.9052
lwrist -9.22154
lhand -17.3473 11.2308
lfingers 7.12502
lthumb 8.90022 41.0231
rfemur -24.974 -11.1086 23.4651
rtibia 42.2333
rfoot -20.2423 -16.56
rtoes -19.2957
lfemur -34.0943 -10.0992 -12.169
ltibia 43.665
lfoot -8.29161 -14.1917
ltoes -10.3896
238
root -12.5701 17.4943 1.06148 13.5464 -63.2023 -6.19506
lowerback 28.4007 0.784202 9.06631
upperback 12.2951 2.51923 3.99946
thorax -1.51196 1.07406 -1.4721
lowerneck 2.82223 1.57725 0.505065
upperneck 26.7497 -6.0982 28.0396
head 8.71678 -1.25847 9.65781
rclavicle -1.59028e-015 -3.49861e-014
rhumerus -202.582 188.68 -250.483
rradius 45.2133
rwrist 18.1094
rhand -28.0046 -49.4001
rfingers 7.12502
rthumb 178.61 100.625
lclavicle -1.59028e-015 -3.49861e-014
lhumerus -31.3297 4.20343 85.3276
lradius 50.5184
lwrist -9.07521
lhand -18.0441 9.89706
lfingers 7.12502
lthumb 8.22773 39.7169
rfemur -25.4767 -10.6489 22.8173
rtibia 42.6402
rfoot -20.1872 -16.2713
rtoes -19.9408
lfemur -34.1401 -9.68022 -12.8002
ltibia 43.7285
lfoot -8.67144 -13.7753
ltoes -12.1768
239
root -12.549 17.4881 1.1289 13.1374 -64.2523 -5.42005
lowerback 28.5951 0.708178 9.36765
upperback 11.8427 2.5873 4.10353
thorax -2.09435 1.08799 -1.55879
lowerneck 3.30604 1.23608 -0.675292
upperneck 24.5661 -6.12805 29.4085
head 7.8803 -1.49631 10.2631
rclavicle 6.36111e-014 3.49861e-014
rhumerus -203.237 188.544 -250.197
rradius 45.5511
rwrist 18.0542
rhand -27.9516 -49.2664
rfingers 7.12502
rthumb 178.661 100.758
lclavicle 6.36111e-014 3.49861e-014
lhumerus -32.197 3.97998 85.648
lradius 50.9176
lwrist -9.39845
lhand -18.7376 8.91733
lfingers 7.12502
lthumb 7.55844 38.7623
rfemur -26.0629 -10.1895 22.0621
rtibia 43.0398
rfoot -20.1926 -15.8792
rtoes -19.9976
lfemur -34.2303 -9.20132 -13.5411
ltibia 43.7713
lfoot -8.85498 -13.4792
ltoes -11.963
240
root -12.5319 17.4788 1.1978 12.7693 -65.3655 -4.6978
lowerback 28.7407 0.615927 9.66927
upperback 11.3831 2.63219 4.14335
thorax -2.66094 1.09128 -1.7086
lowerneck 3.28994 0.846719 -1.19745
upperneck 23.0526 -6.29533 29.8851
head 7.40704 -1.70085 10.4277
rclavicle -3.81667e-014 -2.54444e-014
rhumerus -203.899 188.359 -250.106
rradius 45.8965
rwrist 18.0511
rhand -27.9442 -49.0725
rfingers 7.12502
rthumb 178.668 100.952
lclavicle -3.81667e-014 -2.54444e-014
lhumerus -33.0601 3.60885 85.7659
lradius 51.4673
lwrist -9.35455
lhand -19.0976 9.01557
lfingers 7.12502
lthumb 7.21098 38.8727
rfemur -26.6663 -9.67708 21.3424
rtibia 43.4387
rfoot -20.2354 -15.477
rtoes -20.0953
lfemur -34.2752 -8.65833 -14.2478
ltibia 43.79
lfoot -8.82817 -13.3245
ltoes -9.62527
241
root -12.5197 17.4731 1.26876 12.1864 -66.535 -3.7075
lowerback 28.6714 0.557005 9.73697
upperback 11.0038 2.626 4.1958
thorax -3.06 1.07028 -1.69291
lowerneck 2.82586 0.41339 -1.11284
upperneck 22.1296 -6.50681 29.2373
head 7.20531 -1.84213 10.0492
rclavicle -3.02153e-014 -5.08889e-014
rhumerus -204.384 188.021 -250.101
rradius 46.261
rwrist 18.1275
rhand -28.0576 -49.0432
rfingers 7.12502
rthumb 178.558 100.982
lclavicle -3.02153e-014 -5.08889e-014
lhumerus -33.8695 3.53175 85.8619
lradius 52.2556
lwrist -9.0011
lhand -19.4617 9.07402
lfingers 7.12502
lthumb 6.85947 38.9429
rfemur -27.3192 -9.15179 20.5169
rtibia 43.8262
rfoot -20.3128 -15.0543
rtoes -20.2085
lfemur -34.3444 -8.14367 -15.0411
ltibia 43.7923
lfoot -9.06364 -13.0654
ltoes -8.56874
242
root -12.5097 17.4696 1.34103 11.2954 -67.8054 -2.41697
lowerback 28.6085 0.539315 9.69649
upperback 10.6309 2.64228 4.19494
thorax -3.45775 1.05975 -1.68181
lowerneck 2.48348 0.010754 -1.02033
upperneck 21.1912 -6.62231 28.4254
head 6.95087 -1.95522 9.61609
rclavicle 4.77083e-015 4.29375e-014
rhumerus -204.873 187.711 -250.174
rradius 46.6644
rwrist 18.4127
rhand -28.2254 -49.0957
rfingers 7.12502
rthumb 178.396 100.931
lclavicle 4.77083e-015 4.29375e-014
lhumerus -34.68 3.70282 85.9433
lradius 53.0654
lwrist -8.84848
lhand -19.8038 9.11967
lfingers 7.12502
lthumb 6.52926 38.999
rfemur -27.9517 -8.62487 19.5904
rtibia 44.1763
rfoot -20.3429 -14.5986
rtoes -20.1575
lfemur -34.3734 -7.4993 -15.9678
ltibia 43.7994
lfoot -9.6311 -12.6871
ltoes -9.85104
243
root -12.5012 17.4633 1.40775 10.6138 -69.2527 -1.43901
lowerback 28.7115 0.591368 9.79696
upperback 10.2303 2.80078 4.13921
thorax -3.93681 1.11614 -1.85575
lowerneck 2.33094 -0.339539 -1.29132
upperneck 20.1116 -6.70242 28.0892
head 6.6281 -2.08569 9.45257
rclavicle 6.36111e-015 0
rhumerus -205.456 187.478 -250.344
rradius 47.0951
rwrist 18.5646
rhand -28.2933 -49.1552
rfingers 7.12502
rthumb 178.331 100.872
lclavicle 6.36111e-015 0
lhumerus -35.335 3.78944 85.9391
lradius 53.6321
lwrist -8.72361
lhand -19.7918 9.51599
lfingers 7.12502
lthumb 6.54079 39.395
rfemur -28.516 -7.81926 18.8355
rtibia 44.468
rfoot -20.302 -14.1985
rtoes -20.1085
lfemur -34.3312 -6.5827 -16.7464
ltibia 43.8152
lfoot -10.1447 -12.3655
ltoes -10.9449
244
root -12.4973 17.4578 1.4716 10.1313 -70.8015 -0.682355
lowerback 28.8154 0.679268 9.99021
upperback 9.82075 3.02833 4.04737
thorax -4.40934 1.20607 -2.14361
lowerneck 2.4163 -0.66164 -1.40434
upperneck 18.8677 -6.65416 27.5866
head 6.18279 -2.17918 9.19893
rclavicle -3.65764e-014 -6.36111e-015
rhumerus -206.06 187.156 -250.578
rradius 47.5166
rwrist 18.4757
rhand -28.5738 -49.2956
rfingers 7.12502
rthumb 178.06 100.733
lclavicle -3.65764e-014 -6.36111e-015
lhumerus -35.9099 3.88397 85.8495
lradius 54.0721
lwrist -8.63162
lhand -19.6976 9.72014
lfingers 7.12502
lthumb 6.63171 39.5963
rfemur -29.0716 -6.77903 18.1899
rtibia 44.6935
rfoot -20.2292 -13.8598
rtoes -20.4759
lfemur -34.2852 -5.51913 -17.4041
ltibia 43.8199
lfoot -10.4622 -12.1294
ltoes -10.5424
245
root -12.504 17.4559 1.54329 9.47482 -72.2247 0.222599
lowerback 28.7951 0.688482 10.2846
upperback 9.40521 3.17187 3.93037
thorax -4.82743 1.25882 -2.48882
lowerneck 2.60702 -0.914678 -1.43988
upperneck 17.6877 -6.50467 26.9202
head 5.72312 -2.22721 8.8904
rclavicle -6.67916e-014 -1.27222e-014
rhumerus -206.672 186.943 -250.826
rradius 47.8865
rwrist 18.7233
rhand -28.9189 -49.2999
rfingers 7.12502
rthumb 177.727 100.733
lclavicle -6.67916e-014 -1.27222e-014
lhumerus -36.5807 3.98008 85.7151
lradius 54.5505
lwrist -8.61578
lhand -19.8351 9.5748
lfingers 7.12502
lthumb 6.49898 39.4551
rfemur -29.5093 -6.01645 17.5231
rtibia 44.8497
rfoot -20.1441 -13.4874
rtoes -21.432
lfemur -34.158 -4.56966 -18.1023
ltibia 43.7965
lfoot -10.7189 -11.912
ltoes -9.8132
246
root -12.519 17.4566 1.61965 8.47766 -73.5956 1.4135
lowerback 28.6987 0.64333 10.6139
upperback 9.00378 3.24346 3.75701
thorax -5.19342 1.2793 -2.89248
lowerneck 2.84006 -1.13519 -1.36887
upperneck 16.6376 -6.32883 26.0596
head 5.29425 -2.25445 8.5122
rclavicle 6.52014e-014 -2.06736e-014
rhumerus -207.232 186.991 -251.125
rradius 48.2137
rwrist 19.4489
rhand -28.5931 -49.1138
rfingers 7.12502
rthumb 178.041 100.915
lclavicle 6.52014e-014 -2.06736e-014
lhumerus -37.1015 3.97156 85.5245
lradius 54.7827
lwrist -8.46279
lhand -20.1859 9.58563
lfingers 7.12502
lthumb 6.16033 39.4761
rfemur -29.8185 -5.41869 16.8079
rtibia 44.9449
rfoot -20.0716 -13.0671
rtoes -22.1321
lfemur -33.9186 -3.76086 -18.84
ltibia 43.7333
lfoot -11.0152 -11.6587
ltoes -9.13389
247
root -12.5368 17.4597 1.694 7.10092 -75.1693 2.96874
lowerback 28.572 0.679757 10.8101
upperback 8.64256 3.36806 3.52901
thorax -5.49864 1.32635 -3.29757
lowerneck 3.10655 -1.34639 -1.10447
upperneck 15.6711 -6.12599 24.8784
head 4.87858 -2.26114 8.00302
rclavicle 9.38264e-014 -5.08889e-014
rhumerus -207.672 187.013 -251.522
rradius 48.4265
rwrist 20.1079
rhand -28.1816 -49.2105
rfingers 7.12502
rthumb 178.439 100.815
lclavicle 9.38264e-014 -5.08889e-014
lhumerus -37.4296 3.83922 85.3109
lradius 54.8576
lwrist -8.20551
lhand -20.476 9.90154
lfingers 7.12502
lthumb 5.88026 39.7999
rfemur -30.1341 -4.62677 16.0364
rtibia 45.0001
rfoot -20.051 -12.5421
rtoes -22.2634
lfemur -33.6425 -2.7977 -19.6225
ltibia 43.6364
lfoot -11.4541 -11.3198
ltoes -9.32803
248
root -12.5596 17.4644 1.76455 5.42335 -76.9015 4.80467
lowerback 28.394 0.802436 10.877
upperback 8.33185 3.55156 3.3087
thorax -5.72333 1.40392 -3.63742
lowerneck 3.28475 -1.51931 -0.820797
upperneck 14.87 -5.91519 23.5554
head 4.53319 -2.24616 7.46449
rclavicle 3.81667e-014 -1.59028e-014
rhumerus -208.005 186.897 -251.983
rradius 48.5251
rwrist 20.4773
rhand -28.3833 -49.4491
rfingers 7.12502
rthumb 178.244 100.578
lclavicle 3.81667e-014 -1.59028e-014
lhumerus -37.7977 3.75313 85.0955
lradius 55.0515
lwrist -8.17692
lhand -20.7509 10.0255
lfingers 7.12502
lthumb 5.61488 39.9311
rfemur -30.4765 -3.73655 15.3073
rtibia 45.0337
rfoot -19.9826 -12.0218
rtoes -22.8898
lfemur -33.3468 -1.7297 -20.367
ltibia 43.5183
lfoot -12.0091 -10.8619
ltoes -10.2397
